HIERARCHY
ROOT root
{
	OFFSET	0	13.1	24.9
	CHANNELS 6  Xposition Yposition Zposition Xrotation Yrotation Zrotation
	JOINT spine_1
	{
		OFFSET	0	9.99999	0
		CHANNELS 3  Xrotation Yrotation Zrotation
		JOINT spine_2
		{
			OFFSET	0	112	-10
			CHANNELS 3  Xrotation Yrotation Zrotation
			JOINT spine_3
			{
				OFFSET	0	206.5	19.3
				CHANNELS 3  Xrotation Yrotation Zrotation
				JOINT spine_4
				{
					OFFSET	0	110.4	14.6
					CHANNELS 3  Xrotation Yrotation Zrotation
					JOINT neck_1
					{
						OFFSET	0	71.8	-50.3
						CHANNELS 3  Xrotation Yrotation Zrotation
						JOINT neck_2
						{
							OFFSET	0	86.2	-25.8
							CHANNELS 3  Xrotation Yrotation Zrotation
							JOINT head_ee
							{
								OFFSET	0	179.8	-8.7
								CHANNELS 3  Xrotation Yrotation Zrotation
								End Site
								{
									OFFSET	1	0	0
								}
							}
						}
					}
					JOINT left_clavicle
					{
						OFFSET	-43.2	22.4	-70.8
						CHANNELS 3  Xrotation Yrotation Zrotation
						JOINT left_shoulder
						{
							OFFSET	-93.9	-5.79999	48.7
							CHANNELS 3  Xrotation Yrotation Zrotation
							JOINT left_elbow
							{
								OFFSET	-291.4	-30.8	15.2
								CHANNELS 3  Xrotation Yrotation Zrotation
								JOINT left_lowarm_twist
								{
									OFFSET	-110.7	-3.89999	13.6
									CHANNELS 3  Xrotation Yrotation Zrotation
									JOINT left_hand
									{
										OFFSET	-110.7	-3.89999	13.6
										CHANNELS 3  Xrotation Yrotation Zrotation
										JOINT left_ee
										{
											OFFSET	-80.8	-5.10001	12.1
											CHANNELS 3  Xrotation Yrotation Zrotation
											End Site
											{
												OFFSET	1	0	0
											}
										}
									}
								}
							}
						}
					}
					JOINT right_clavicle
					{
						OFFSET	43.2	22.4	-70.8
						CHANNELS 3  Xrotation Yrotation Zrotation
						JOINT right_shoulder
						{
							OFFSET	93.9	-5.79999	48.7
							CHANNELS 3  Xrotation Yrotation Zrotation
							JOINT right_elbow
							{
								OFFSET	291.4	-30.8	15.2
								CHANNELS 3  Xrotation Yrotation Zrotation
								JOINT right_lowarm_twist
								{
									OFFSET	110.7	-3.89999	13.6
									CHANNELS 3  Xrotation Yrotation Zrotation
									JOINT right_hand
									{
										OFFSET	110.7	-3.89999	13.6
										CHANNELS 3  Xrotation Yrotation Zrotation
										JOINT right_ee
										{
											OFFSET	80.8	-5.10001	12.1
											CHANNELS 3  Xrotation Yrotation Zrotation
											End Site
											{
												OFFSET	1	0	0
											}
										}
									}
								}
							}
						}
					}
				}
			}
		}
	}
	JOINT left_hip
	{
		OFFSET	-82.8	-127.5	0.300001
		CHANNELS 3  Xrotation Yrotation Zrotation
		JOINT left_knee
		{
			OFFSET	-28.2	-396.7	2.2
			CHANNELS 3  Xrotation Yrotation Zrotation
			JOINT left_ankle
			{
				OFFSET	-11.7	-411.3	35.4
				CHANNELS 3  Xrotation Yrotation Zrotation
				JOINT left_toes
				{
					OFFSET	0	-60	-88.6
					CHANNELS 3  Xrotation Yrotation Zrotation
					JOINT left_foot_ee
					{
						OFFSET	-22.5	-16.5	-42.2
						CHANNELS 3  Xrotation Yrotation Zrotation
						End Site
						{
							OFFSET	1	0	0
						}
					}
				}
			}
		}
	}
	JOINT right_hip
	{
		OFFSET	82.8	-127.5	0.300001
		CHANNELS 3  Xrotation Yrotation Zrotation
		JOINT right_knee
		{
			OFFSET	28.2	-396.7	2.2
			CHANNELS 3  Xrotation Yrotation Zrotation
			JOINT right_ankle
			{
				OFFSET	11.7	-411.3	35.4
				CHANNELS 3  Xrotation Yrotation Zrotation
				JOINT right_toes
				{
					OFFSET	0	-60	-88.6
					CHANNELS 3  Xrotation Yrotation Zrotation
					JOINT right_foot_ee
					{
						OFFSET	22.5	-16.5	-42.2
						CHANNELS 3  Xrotation Yrotation Zrotation
						End Site
						{
							OFFSET	1	0	0
						}
					}
				}
			}
		}
	}
}
MOTION
Frames: 16
Frame Time: 0.02
2831.422386 693.597 -1616.37556789 -33.1419121651 86.3264772996 36.4143573801 1.85323 -0.0889394 -1.66171 1.85477 0.0169646 -1.664 1.85423 0.313691 -1.63426 1.8505 0.0516905 -1.66328 -7.11767 6.73407 7.22369 -6.98331 7.30651 8.571 -0.0 0.0 -0.0 3.34915 -1.52897 6.36074 4.88361 -16.334 68.3327 1.41932 -35.1086 0.449008 -38.8294 -2.82754 3.97532 -1.27889 16.079 -1.30455 -0.0 0.0 -0.0 -0.02021 -12.7794 -1.47503 -14.3388 30.6387 -65.1267 0.259235 7.31789 -0.0165775 48.3543 0.853529 5.93697 -1.99381 -15.7921 5.8436 0.0 0.0 0.0 1.01417 6.15296 0.672763 7.95594 -0.408343 -1.15102 35.783 13.3993 -4.51659 -26.5671 0.0 0.0 -0.0 0.0 -0.0 21.4097 12.3119 -7.04572 -51.8766 1.3895 -7.57216 19.2642 -18.1568 2.68804 -18.9719 0.0 0.0 0.0 0.0 0.0 
2832.75900952 693.597 -1608.28165334 -49.21563393 87.3484150025 52.5116434124 1.85323 -0.0889394 -1.66171 1.85477 0.0169646 -1.664 1.85423 0.313691 -1.63426 1.8505 0.0516905 -1.66328 -7.11767 6.73407 7.22369 -6.98331 7.30651 8.571 -0.0 0.0 -0.0 3.34915 -1.52897 6.36074 4.88361 -16.334 68.3327 1.41932 -35.1086 0.449008 -38.8294 -2.82754 3.97532 -1.27889 16.079 -1.30455 -0.0 0.0 -0.0 -0.02021 -12.7794 -1.47503 -14.3388 30.6387 -65.1267 0.259235 7.31789 -0.0165775 48.3543 0.853529 5.93697 -1.99381 -15.7921 5.8436 0.0 0.0 0.0 1.01417 6.15296 0.672763 7.95594 -0.408343 -1.15102 35.783 13.3993 -4.51659 -26.5671 0.0 0.0 -0.0 0.0 -0.0 21.4097 12.3119 -7.04572 -51.8766 1.3895 -7.57216 19.2642 -18.1568 2.68804 -18.9719 0.0 0.0 0.0 0.0 0.0 
2824.57515021 698.75 -1588.82982366 -120.404525965 87.4850827487 123.879942309 1.98812 -0.139333 -1.72195 1.98976 -0.0294951 -1.72732 1.99057 0.275208 -1.70552 1.98651 0.00244051 -1.72757 -7.35755 6.75951 7.34533 -7.21907 7.30697 8.70562 -0.0 0.0 -0.0 3.4591 -2.21366 6.53319 7.00066 -17.0845 68.5414 1.47718 -36.1925 0.482732 -39.6688 -2.91601 4.03677 -1.35113 16.5162 -1.54968 -0.0 0.0 -0.0 -0.488877 -12.7911 -0.699816 -16.1263 30.1246 -64.3219 0.267592 7.55111 -0.0176588 48.2298 0.845016 5.92349 -1.90886 -15.4179 5.49891 0.0 0.0 0.0 -0.0816979 6.03721 0.793673 7.55475 -0.383942 -1.09439 35.3143 13.4873 -4.47153 -25.9018 0.0 0.0 -0.0 0.0 -0.0 22.5542 12.3041 -6.70612 -47.8046 1.03639 -7.05413 17.5906 -17.9384 2.46979 -19.3097 0.0 0.0 0.0 0.0 0.0 
2812.86407023 700.029 -1569.69945402 -151.157441693 85.6225917327 154.83341347 2.13214 -0.21258 -1.79529 2.13393 -0.0979295 -1.80518 2.13688 0.216947 -1.79477 2.1324 -0.0691782 -1.80651 -8.20616 6.62031 7.46735 -8.06465 7.10549 8.82852 -0.0 0.0 -0.0 3.4557 -2.48046 6.50947 8.76695 -17.6202 68.1377 1.61157 -38.5983 0.564368 -40.4436 -2.99846 4.09234 -1.45518 16.975 -1.97596 -0.0 0.0 -0.0 -0.837146 -14.093 -0.300257 -17.909 29.629 -63.1949 0.286966 8.09084 -0.0202953 48.2616 0.84719 5.92694 -1.73525 -14.9186 4.65981 0.0 0.0 0.0 -1.19743 5.49212 0.647179 6.6289 -0.329153 -0.963063 35.177 13.3602 -4.45661 -24.9094 0.0 0.0 -0.0 0.0 -0.0 23.3589 13.5397 -6.42702 -43.9638 0.738007 -6.54406 16.6775 -17.3505 2.34583 -19.7838 0.0 0.0 0.0 0.0 0.0 
2801.01956529 699.034 -1561.12630743 -153.871383243 84.0538704933 157.872231991 2.32598 -0.433757 -1.92167 2.32798 -0.310621 -1.94536 2.33836 0.0247823 -1.96984 2.33306 -0.286568 -1.94905 -8.9827 5.90934 6.85111 -8.86488 6.33212 8.09359 -0.0 0.0 -0.0 3.36819 -3.10457 6.29551 9.96601 -19.3297 67.0691 1.69763 -40.059 0.618918 -41.3555 -3.09646 4.1563 -1.4709 16.9333 -2.09096 -0.0 0.0 -0.0 -1.25295 -14.949 0.250143 -19.2504 29.0856 -62.6525 0.340494 9.5742 -0.028515 48.3063 0.850247 5.93178 -1.51359 -14.2506 3.59225 0.0 0.0 0.0 -1.64315 4.43785 0.138892 6.12029 -0.299962 -0.890555 36.3585 11.8705 -4.55716 -23.7783 0.0 0.0 -0.0 0.0 -0.0 23.0181 15.1107 -6.42146 -36.1068 0.237839 -5.44557 15.6799 -17.5874 2.21576 -20.3831 0.0 0.0 0.0 0.0 0.0 
2784.9768772 701.552 -1551.25064119 -159.426732329 82.8868288649 163.346701133 2.52645 -0.574907 -1.85966 2.52826 -0.455428 -1.89246 2.54311 -0.13394 -1.94186 2.53812 -0.438884 -1.89637 -9.53059 4.79861 7.11927 -9.39612 4.14288 8.1124 -0.0 0.0 -0.0 3.33007 -3.78661 6.17363 10.9131 -19.31 66.8508 1.80317 -41.7684 0.688042 -43.1781 -3.29531 4.27945 -1.70557 18.4224 -2.82058 -0.0 0.0 -0.0 -1.54437 -16.0847 0.542334 -20.8208 28.2203 -61.5648 0.382466 10.7284 -0.0359128 48.7653 0.88184 5.98131 -1.24885 -14.3217 1.91008 0.0 0.0 0.0 -2.36204 3.25112 0.121994 4.82906 -0.228766 -0.705361 35.5662 12.6854 -4.48801 -22.2035 0.0 0.0 -0.0 0.0 -0.0 24.371 18.0286 -6.92734 -29.0766 -0.0783261 -4.41387 15.2954 -15.7472 2.15347 -20.8489 0.0 0.0 0.0 0.0 0.0 
2770.22773935 702.386 -1540.62984615 -158.504240304 83.577894164 162.12709434 2.4436 -0.590952 -2.29953 2.44643 -0.443471 -2.33245 2.46419 -0.0455976 -2.37377 2.45657 -0.419815 -2.33682 -9.57731 7.30616 9.20436 -9.36144 7.43647 10.7398 -0.0 0.0 -0.0 3.19947 -3.57998 5.92782 11.2057 -20.2148 67.0866 1.95623 -44.0949 0.792318 -43.1214 -3.28907 4.27572 -1.74186 17.4239 -3.51254 -0.0 0.0 -0.0 -2.27933 -15.9843 1.72044 -22.2703 27.9017 -60.1954 0.441885 12.3473 -0.0477986 48.2855 0.848823 5.92953 -1.19521 -13.7176 1.84669 0.0 0.0 0.0 -2.81995 3.29661 0.67291 4.28895 -0.20023 -0.627439 35.5696 12.5531 -4.48706 -20.9243 0.0 0.0 -0.0 0.0 -0.0 22.6179 19.8031 -6.1556 -21.7216 -0.27121 -3.30239 13.4777 -15.7357 1.91053 -21.7069 0.0 0.0 0.0 0.0 0.0 
2752.85456575 701.823 -1537.97905854 -163.767259615 84.126113289 167.359497634 2.3837 -0.635596 -2.43575 2.38688 -0.479363 -2.47123 2.40728 -0.0552102 -2.51666 2.39873 -0.451853 -2.4764 -11.0667 7.27921 10.8537 -10.7581 6.58849 12.3912 -0.0 0.0 -0.0 2.82724 -3.03459 5.22851 11.5968 -21.3866 67.3447 2.17552 -47.1354 0.949094 -43.1204 -3.28896 4.27565 -1.84387 15.9288 -4.85077 -0.0 0.0 -0.0 -2.61658 -16.4135 2.17625 -23.0404 27.5441 -59.964 0.509322 14.1606 -0.0632619 48.3373 0.852367 5.93513 -1.10004 -13.2899 1.44158 0.0 0.0 0.0 -4.6387 3.40986 0.435592 3.77034 -0.173524 -0.552372 36.0435 12.3498 -4.53122 -19.6905 0.0 0.0 -0.0 0.0 -0.0 23.4251 21.8749 -5.63118 -16.4973 -0.320898 -2.50262 15.3858 -13.6372 2.15543 -21.8562 0.0 0.0 0.0 0.0 0.0 
2734.34696894 697.879 -1537.00713116 -164.632039184 84.7270583424 167.942935545 2.49133 -0.57926 -2.56613 2.4949 -0.414853 -2.59776 2.51324 0.0249446 -2.63054 2.50379 -0.39067 -2.60151 -11.7404 7.26894 12.4104 -11.3267 5.70033 13.9092 -0.0 0.0 -0.0 2.70105 -1.79207 5.07283 11.1696 -21.647 66.6636 2.42776 -50.2487 1.13864 -43.0568 -3.28196 4.27145 -1.99326 13.8093 -6.80712 -0.0 0.0 -0.0 -3.21136 -17.0918 2.97864 -24.2742 26.8401 -59.5471 0.554097 15.3489 -0.0746658 48.3661 0.854341 5.93825 -1.05575 -12.8211 1.37121 0.0 0.0 0.0 -6.83592 3.51703 0.396924 3.79039 -0.174543 -0.555279 36.9484 12.0108 -4.61471 -17.9015 0.0 0.0 -0.0 0.0 -0.0 23.461 21.5898 -5.8291 -11.8713 -0.303932 -1.79324 18.1499 -13.0862 2.51163 -21.8858 0.0 0.0 0.0 0.0 0.0 
2716.41335497 696.949 -1539.63569936 -161.623281074 86.5275444799 165.196629432 2.75541 -0.493857 -2.82325 2.75979 -0.31328 -2.84892 2.77438 0.154143 -2.86194 2.76307 -0.299593 -2.85039 -11.3414 7.79653 14.1003 -10.8018 5.47436 15.6559 -0.0 0.0 -0.0 2.84289 -1.14171 5.39763 10.5304 -22.0704 65.9508 2.54598 -51.5809 1.23041 -42.7203 -3.24501 4.24912 -2.1515 11.1453 -9.12202 -0.0 0.0 -0.0 -3.66096 -17.1778 3.66336 -24.9166 26.5101 -59.5589 0.611602 16.8553 -0.0906161 48.4242 0.858322 5.94452 -1.01425 -12.413 1.28995 0.0 0.0 0.0 -9.36752 3.69355 0.0280772 3.91964 -0.181142 -0.574007 38.3685 11.5332 -4.74276 -15.3792 0.0 0.0 -0.0 0.0 -0.0 23.4179 21.1231 -5.8373 -6.0022 -0.200183 -0.89899 21.094 -12.2245 2.8772 -22.1617 0.0 0.0 0.0 0.0 0.0 
2661.55861375 675.019 -1534.53696238 -163.245713677 87.055476014 167.20501139 2.5925 -0.64138 -3.36232 2.59869 -0.426254 -3.39627 2.62287 0.140634 -3.41999 2.60677 -0.400936 -3.39934 -10.5946 8.02447 13.1229 -10.133 6.35539 14.7488 -0.0 0.0 -0.0 3.67085 -0.170051 7.0691 11.3631 -23.9357 63.98 2.95865 -55.6831 1.56291 -39.6895 -2.91821 4.03827 -2.60069 9.8241 -12.7142 -0.0 0.0 -0.0 -4.39542 -16.4043 4.99514 -26.746 24.6597 -59.2368 0.579271 16.0112 -0.0814695 47.5914 0.801826 5.85412 -0.726492 -11.0102 0.0777549 0.0 0.0 0.0 -15.2439 4.13327 0.729805 7.92516 -0.406458 -1.14669 39.7396 10.7831 -4.85976 -11.9394 0.0 0.0 -0.0 0.0 -0.0 24.7516 19.707 -5.28525 7.09872 0.356689 1.02981 15.3315 -14.7344 2.15308 -23.6561 0.0 0.0 0.0 0.0 0.0 
2616.92247544 670.559 -1526.71878766 -176.27860807 85.2334446577 -179.930247814 2.38745 -0.681147 -3.78595 2.39531 -0.439037 -3.82155 2.42363 0.211721 -3.84083 2.40327 -0.397069 -3.82613 -9.44272 8.71339 12.1726 -9.05418 8.00146 13.9494 -0.0 0.0 -0.0 3.7791 1.29035 7.3555 12.2001 -24.9871 68.1535 3.10417 -56.9513 1.68401 -34.7564 -2.41155 3.6592 -2.80873 10.3624 -13.806 -0.0 0.0 -0.0 -3.89074 -13.1862 4.88935 -26.9235 22.0775 -61.3373 0.414503 11.6036 -0.0421171 47.6564 0.80619 5.86121 -0.228744 -8.66524 -2.12191 0.0 0.0 0.0 -16.7057 4.30534 1.21001 5.41787 -0.260713 -0.790006 41.0874 10.5195 -4.97493 -10.7082 0.0 0.0 -0.0 0.0 -0.0 25.2017 18.772 -5.51339 4.31684 0.201685 0.631469 9.70905 -15.6322 1.39407 -23.1912 0.0 0.0 0.0 0.0 0.0 
2598.74482514 668.388 -1528.22528176 -173.489704206 84.6939913464 177.235503706 2.3696 -0.707122 -3.82797 2.37763 -0.462293 -3.86513 2.40789 0.197175 -3.88765 2.38704 -0.41881 -3.87007 -9.12601 8.91337 12.3891 -8.72277 8.14242 14.1933 -0.0 0.0 -0.0 3.87437 1.79967 7.56263 12.1252 -24.9098 69.4087 3.0039 -56.0866 1.60038 -34.5033 -2.38645 3.63859 -2.94142 11.1243 -14.2767 -0.0 0.0 -0.0 -3.55275 -12.6031 4.44398 -27.0361 21.655 -61.4644 0.373155 10.4731 -0.0342 47.7258 0.810853 5.86876 -0.0113524 -7.91024 -3.21735 0.0 0.0 0.0 -16.9951 4.13483 1.25289 4.65957 -0.219732 -0.680937 41.4314 9.18531 -4.99402 -10.6492 0.0 0.0 -0.0 0.0 -0.0 25.5771 18.8746 -5.83682 3.02711 0.136441 0.44439 8.4904 -15.3083 1.22297 -23.6522 0.0 0.0 0.0 0.0 0.0 
2597.20336573 668.388 -1534.70135554 -172.600662051 85.3300873405 176.343095826 2.3696 -0.707122 -3.82797 2.37763 -0.462293 -3.86513 2.40789 0.197175 -3.88765 2.38704 -0.41881 -3.87007 -9.12601 8.91337 12.3891 -8.72277 8.14242 14.1933 -0.0 0.0 -0.0 3.87437 1.79967 7.56263 12.1252 -24.9098 69.4087 3.0039 -56.0866 1.60038 -34.5033 -2.38645 3.63859 -2.94142 11.1243 -14.2767 -0.0 0.0 -0.0 -3.55275 -12.6031 4.44398 -27.0361 21.655 -61.4644 0.373155 10.4731 -0.0342 47.7258 0.810853 5.86876 -0.0113524 -7.91024 -3.21735 0.0 0.0 0.0 -16.9951 4.13483 1.25289 4.65957 -0.219732 -0.680937 41.4314 9.18531 -4.99402 -10.6492 0.0 0.0 -0.0 0.0 -0.0 25.5771 18.8746 -5.83682 3.02711 0.136441 0.44439 8.4904 -15.3083 1.22297 -23.6522 0.0 0.0 0.0 0.0 0.0 
2596.26875214 668.388 -1538.79317741 -171.903897624 85.7304211727 175.644210128 2.3696 -0.707122 -3.82797 2.37763 -0.462293 -3.86513 2.40789 0.197175 -3.88765 2.38704 -0.41881 -3.87007 -9.12601 8.91337 12.3891 -8.72277 8.14242 14.1933 -0.0 0.0 -0.0 3.87437 1.79967 7.56263 12.1252 -24.9098 69.4087 3.0039 -56.0866 1.60038 -34.5033 -2.38645 3.63859 -2.94142 11.1243 -14.2767 -0.0 0.0 -0.0 -3.55275 -12.6031 4.44398 -27.0361 21.655 -61.4644 0.373155 10.4731 -0.0342 47.7258 0.810853 5.86876 -0.0113524 -7.91024 -3.21735 0.0 0.0 0.0 -16.9951 4.13483 1.25289 4.65957 -0.219732 -0.680937 41.4314 9.18531 -4.99402 -10.6492 0.0 0.0 -0.0 0.0 -0.0 25.5771 18.8746 -5.83682 3.02711 0.136441 0.44439 8.4904 -15.3083 1.22297 -23.6522 0.0 0.0 0.0 0.0 0.0 
2595.65857316 668.388 -1541.53897661 -171.358913412 85.9982937361 175.097804648 2.3696 -0.707122 -3.82797 2.37763 -0.462293 -3.86513 2.40789 0.197175 -3.88765 2.38704 -0.41881 -3.87007 -9.12601 8.91337 12.3891 -8.72277 8.14242 14.1933 -0.0 0.0 -0.0 3.87437 1.79967 7.56263 12.1252 -24.9098 69.4087 3.0039 -56.0866 1.60038 -34.5033 -2.38645 3.63859 -2.94142 11.1243 -14.2767 -0.0 0.0 -0.0 -3.55275 -12.6031 4.44398 -27.0361 21.655 -61.4644 0.373155 10.4731 -0.0342 47.7258 0.810853 5.86876 -0.0113524 -7.91024 -3.21735 0.0 0.0 0.0 -16.9951 4.13483 1.25289 4.65957 -0.219732 -0.680937 41.4314 9.18531 -4.99402 -10.6492 0.0 0.0 -0.0 0.0 -0.0 25.5771 18.8746 -5.83682 3.02711 0.136441 0.44439 8.4904 -15.3083 1.22297 -23.6522 0.0 0.0 0.0 0.0 0.0 
